<svg width="42" height="41" viewBox="0 0 42 41" fill="none" xmlns="http://www.w3.org/2000/svg">
<path d="M39.4075 -0.000760457C39.3226 0.00192058 39.238 0.00934296 39.154 0.0214718H28.069C27.7673 0.0172054 27.4678 0.0729391 27.1879 0.185434C26.9079 0.297928 26.6531 0.46494 26.4383 0.676764C26.2235 0.888587 26.0529 1.141 25.9364 1.41933C25.82 1.69766 25.76 1.99635 25.76 2.29806C25.76 2.59976 25.82 2.89846 25.9364 3.17679C26.0529 3.45511 26.2235 3.70753 26.4383 3.91935C26.6531 4.13117 26.9079 4.29818 27.1879 4.41068C27.4678 4.52317 27.7673 4.57891 28.069 4.57464H33.9561L12.7999 25.7309C12.5814 25.9406 12.407 26.1919 12.2868 26.4699C12.1666 26.748 12.1031 27.0472 12.1001 27.3501C12.097 27.653 12.1544 27.9534 12.2688 28.2338C12.3833 28.5143 12.5526 28.769 12.7668 28.9832C12.981 29.1974 13.2357 29.3667 13.5162 29.4811C13.7966 29.5956 14.097 29.653 14.3999 29.6499C14.7028 29.6469 15.002 29.5834 15.2801 29.4632C15.5581 29.343 15.8094 29.1686 16.0191 28.9501L37.1754 7.79387V13.681C37.1711 13.9827 37.2268 14.2822 37.3393 14.5621C37.4518 14.8421 37.6188 15.0969 37.8307 15.3117C38.0425 15.5265 38.2949 15.6971 38.5732 15.8136C38.8515 15.93 39.1502 15.99 39.4519 15.99C39.7536 15.99 40.0523 15.93 40.3307 15.8136C40.609 15.6971 40.8614 15.5265 41.0732 15.3117C41.2851 15.0969 41.4521 14.8421 41.5646 14.5621C41.6771 14.2822 41.7328 13.9827 41.7285 13.681V2.58708C41.7739 2.25931 41.7472 1.92559 41.6504 1.60917C41.5537 1.29275 41.3891 1.00122 41.1681 0.754895C40.9472 0.508566 40.6752 0.313355 40.3712 0.182851C40.0671 0.0523478 39.7382 -0.0103103 39.4075 -0.000760457ZM5.30317 0.0214718C2.81472 0.0214718 0.75 2.08619 0.75 4.57464V36.4468C0.75 38.9353 2.81472 41 5.30317 41H37.1754C39.6638 41 41.7285 38.9353 41.7285 36.4468V22.7873C41.7328 22.4856 41.6771 22.1861 41.5646 21.9062C41.4521 21.6262 41.2851 21.3714 41.0732 21.1566C40.8614 20.9418 40.609 20.7712 40.3307 20.6547C40.0523 20.5383 39.7536 20.4783 39.4519 20.4783C39.1502 20.4783 38.8515 20.5383 38.5732 20.6547C38.2949 20.7712 38.0425 20.9418 37.8307 21.1566C37.6188 21.3714 37.4518 21.6262 37.3393 21.9062C37.2268 22.1861 37.1711 22.4856 37.1754 22.7873V36.4468H5.30317V4.57464H18.9627C19.2644 4.57891 19.5639 4.52317 19.8438 4.41068C20.1238 4.29818 20.3786 4.13117 20.5934 3.91935C20.8082 3.70753 20.9788 3.45511 21.0953 3.17679C21.2117 2.89846 21.2717 2.59976 21.2717 2.29806C21.2717 1.99635 21.2117 1.69766 21.0953 1.41933C20.9788 1.141 20.8082 0.888587 20.5934 0.676764C20.3786 0.46494 20.1238 0.297928 19.8438 0.185434C19.5639 0.0729391 19.2644 0.0172054 18.9627 0.0214718H5.30317Z" fill="#4C75DE"/>
</svg>
