<svg width="45" height="44" viewBox="0 0 45 44" fill="none" xmlns="http://www.w3.org/2000/svg">
<path fill-rule="evenodd" clip-rule="evenodd" d="M22.7682 0C10.5927 0 0.75 9.91527 0.75 22.1818C0.75 31.9871 7.05656 40.2871 15.8054 43.2247C16.8993 43.4455 17.2999 42.7474 17.2999 42.1602C17.2999 41.6459 17.2639 39.8833 17.2639 38.0467C11.1389 39.369 9.86348 35.4025 9.86348 35.4025C8.87917 32.8317 7.42072 32.171 7.42072 32.171C5.41603 30.8121 7.56675 30.8121 7.56675 30.8121C9.79047 30.9591 10.9573 33.0891 10.9573 33.0891C12.9255 36.4674 16.097 35.5129 17.3729 34.9252C17.555 33.4929 18.1387 32.5013 18.7584 31.9506C13.8733 31.4364 8.73359 29.5268 8.73359 21.0064C8.73359 18.5826 9.60794 16.5995 10.9934 15.0572C10.7748 14.5065 10.0091 12.2291 11.2124 9.18109C11.2124 9.18109 13.0715 8.59338 17.2634 11.458C19.0581 10.9724 20.909 10.7254 22.7682 10.7234C24.6273 10.7234 26.5225 10.9807 28.2725 11.458C32.4649 8.59338 34.324 9.18109 34.324 9.18109C35.5274 12.2291 34.7612 14.5065 34.5426 15.0572C35.9645 16.5995 36.8028 18.5826 36.8028 21.0064C36.8028 29.5268 31.6631 31.3994 26.7415 31.9506C27.5438 32.6483 28.236 33.9702 28.236 36.0636C28.236 39.0382 28.2 41.4255 28.2 42.1597C28.2 42.7474 28.6011 43.4455 29.6945 43.2252C38.4433 40.2866 44.7499 31.9871 44.7499 22.1818C44.786 9.91527 34.9072 0 22.7682 0Z" fill="#4C75DE"/>
</svg>
